<svg width="1000" height="1000" viewBox="0 0 1000 1000" fill="none" xmlns="http://www.w3.org/2000/svg">
<g clip-path="url(#clip0_2668_1180)">
<path d="M2.44572 0H2.04772C0.858716 83.333 0.523716 166.666 0.113716 249.999C-0.194284 333.332 0.202716 416.666 0.370715 499.999L1.48172 1000H1.87972L3.55672 500.001C3.81872 416.668 4.30972 333.335 4.09672 250.001C3.78072 166.668 3.53972 83.334 2.44572 0Z" fill="url(#paint0_linear_2668_1180)"/>
<path d="M26.7348 0H26.3358C25.1478 83.333 24.8128 166.666 24.4018 249.999C24.0938 333.332 24.4908 416.666 24.6588 499.999L25.7708 1000H26.1688L27.8458 500.001C28.1078 416.668 28.5988 333.335 28.3858 250.001C28.0698 166.668 27.8288 83.334 26.7348 0Z" fill="url(#paint1_linear_2668_1180)"/>
<path d="M51.0238 0H50.8248H50.6258C49.4368 83.333 49.1028 166.666 48.6918 249.999C48.3838 333.332 48.7808 416.666 48.9488 499.999L50.0608 1000H50.2598H50.4588L52.1358 500.001C52.3978 416.668 52.8888 333.335 52.6758 250.001C52.3588 166.668 52.1178 83.334 51.0238 0Z" fill="url(#paint2_linear_2668_1180)"/>
<path d="M75.3129 0H74.9149C73.7269 83.333 73.3919 166.666 72.9809 249.999C72.6729 333.332 73.0699 416.666 73.2379 499.999L74.3499 1000H74.7479L76.4249 500.001C76.6869 416.668 77.1789 333.335 76.9649 250.001C76.6479 166.668 76.4069 83.334 75.3129 0Z" fill="url(#paint3_linear_2668_1180)"/>
<path d="M99.602 0H99.204C98.016 83.333 97.681 166.666 97.27 249.999C96.962 333.332 97.359 416.666 97.527 499.999L98.639 1000H99.037L100.713 500.001C100.975 416.668 101.467 333.335 101.253 250.001C100.937 166.668 100.696 83.334 99.602 0Z" fill="url(#paint4_linear_2668_1180)"/>
<path d="M123.891 0H123.493C122.304 83.333 121.97 166.666 121.559 249.999C121.251 333.332 121.648 416.666 121.816 499.999L122.928 1000H123.326L125.003 500.001C125.265 416.668 125.757 333.335 125.543 250.001C125.226 166.668 124.985 83.334 123.891 0Z" fill="url(#paint5_linear_2668_1180)"/>
<path d="M148.18 0H147.981H147.782C146.594 83.333 146.258 166.666 145.848 249.999C145.54 333.332 145.937 416.666 146.105 499.999L147.217 1000H147.416H147.615L149.292 500.001C149.554 416.668 150.045 333.335 149.832 250.001C149.515 166.668 149.274 83.334 148.18 0Z" fill="url(#paint6_linear_2668_1180)"/>
<path d="M172.469 0H172.071C170.882 83.333 170.548 166.666 170.137 249.999C169.829 333.332 170.226 416.666 170.394 499.999L171.506 1000H171.904L173.581 500.001C173.843 416.668 174.334 333.335 174.121 250.001C173.804 166.668 173.564 83.334 172.469 0Z" fill="url(#paint7_linear_2668_1180)"/>
<path d="M196.758 0H196.36C195.172 83.333 194.837 166.666 194.426 249.999C194.118 333.332 194.515 416.666 194.683 499.999L195.795 1000H196.194L197.871 500.001C198.133 416.668 198.624 333.335 198.411 250.001C198.093 166.668 197.852 83.334 196.758 0Z" fill="url(#paint8_linear_2668_1180)"/>
<path d="M221.047 0H220.649C219.46 83.333 219.126 166.666 218.715 249.999C218.407 333.332 218.804 416.666 218.972 499.999L220.084 1000H220.482L222.159 500.001C222.421 416.668 222.912 333.335 222.699 250.001C222.382 166.668 222.141 83.334 221.047 0Z" fill="url(#paint9_linear_2668_1180)"/>
<path d="M245.336 0H245.137H244.938C243.75 83.333 243.415 166.666 243.004 249.999C242.696 333.332 243.093 416.666 243.261 499.999L244.373 1000H244.572H244.771L246.448 500.001C246.71 416.668 247.201 333.335 246.988 250.001C246.671 166.668 246.431 83.334 245.336 0Z" fill="url(#paint10_linear_2668_1180)"/>
<path d="M269.625 0H269.227C268.038 83.333 267.704 166.666 267.293 249.999C266.985 333.332 267.382 416.666 267.55 499.999L268.662 1000H269.06L270.737 500.001C270.999 416.668 271.49 333.335 271.277 250.001C270.96 166.668 270.72 83.334 269.625 0Z" fill="url(#paint11_linear_2668_1180)"/>
<path d="M293.914 0H293.516C292.327 83.333 291.993 166.666 291.582 249.999C291.274 333.332 291.671 416.666 291.839 499.999L292.951 1000H293.349L295.026 500.001C295.288 416.668 295.779 333.335 295.566 250.001C295.249 166.668 295.009 83.334 293.914 0Z" fill="url(#paint12_linear_2668_1180)"/>
<path d="M318.203 0H317.805C316.616 83.333 316.282 166.666 315.871 249.999C315.563 333.332 315.96 416.666 316.128 499.999L317.24 1000H317.638L319.315 500.001C319.577 416.668 320.068 333.335 319.855 250.001C319.538 166.668 319.298 83.334 318.203 0Z" fill="url(#paint13_linear_2668_1180)"/>
<path d="M342.492 0H342.293H342.094C340.905 83.333 340.571 166.666 340.16 249.999C339.852 333.332 340.249 416.666 340.417 499.999L341.529 1000H341.728H341.927L343.604 500.001C343.866 416.668 344.357 333.335 344.143 250.001C343.828 166.668 343.587 83.334 342.492 0Z" fill="url(#paint14_linear_2668_1180)"/>
<path d="M366.781 0H366.383C365.195 83.333 364.86 166.666 364.449 249.999C364.141 333.332 364.538 416.666 364.706 499.999L365.818 1000H366.217L367.894 500.001C368.156 416.668 368.647 333.335 368.433 250.001C368.116 166.668 367.876 83.334 366.781 0Z" fill="url(#paint15_linear_2668_1180)"/>
<path d="M391.07 0H390.672C389.483 83.333 389.149 166.666 388.738 249.999C388.43 333.332 388.827 416.666 388.995 499.999L390.107 1000H390.505L392.182 500.001C392.444 416.668 392.935 333.335 392.721 250.001C392.405 166.668 392.165 83.334 391.07 0Z" fill="url(#paint16_linear_2668_1180)"/>
<path d="M415.359 0H414.96C413.772 83.333 413.437 166.666 413.026 249.999C412.718 333.332 413.115 416.666 413.283 499.999L414.396 1000H414.794L416.471 500.001C416.733 416.668 417.224 333.335 417.011 250.001C416.694 166.668 416.454 83.334 415.359 0Z" fill="url(#paint17_linear_2668_1180)"/>
<path d="M439.648 0H439.25C438.061 83.333 437.727 166.666 437.316 249.999C437.008 333.332 437.405 416.666 437.573 499.999L438.685 1000H438.884H439.083L440.76 500.001C441.022 416.668 441.513 333.335 441.3 250.001C440.983 166.668 440.743 83.334 439.648 0Z" fill="url(#paint18_linear_2668_1180)"/>
<path d="M463.938 0H463.54C462.351 83.333 462.017 166.666 461.606 249.999C461.298 333.332 461.695 416.666 461.863 499.999L462.974 1000H463.372L465.049 500.001C465.311 416.668 465.803 333.335 465.589 250.001C465.273 166.668 465.032 83.334 463.938 0Z" fill="url(#paint19_linear_2668_1180)"/>
<path d="M488.226 0H487.828C486.639 83.333 486.305 166.666 485.894 249.999C485.586 333.332 485.983 416.666 486.151 499.999L487.263 1000H487.661L489.338 500.001C489.6 416.668 490.092 333.335 489.878 250.001C489.562 166.668 489.321 83.334 488.226 0Z" fill="url(#paint20_linear_2668_1180)"/>
<path d="M512.516 0H512.118C510.929 83.333 510.595 166.666 510.184 249.999C509.876 333.332 510.273 416.666 510.441 499.999L511.552 1000H511.95L513.627 500.001C513.889 416.668 514.38 333.335 514.167 250.001C513.851 166.668 513.61 83.334 512.516 0Z" fill="url(#paint21_linear_2668_1180)"/>
<path d="M536.805 0H536.407C535.218 83.333 534.884 166.666 534.473 249.999C534.165 333.332 534.562 416.666 534.73 499.999L535.841 1000H536.239L537.916 500.001C538.178 416.668 538.669 333.335 538.456 250.001C538.14 166.668 537.899 83.334 536.805 0Z" fill="url(#paint22_linear_2668_1180)"/>
<path d="M561.094 0H560.895H560.696C559.507 83.333 559.173 166.666 558.762 249.999C558.454 333.332 558.851 416.666 559.019 499.999L560.13 1000H560.528L562.205 500.001C562.467 416.668 562.958 333.335 562.744 250.001C562.429 166.668 562.188 83.334 561.094 0Z" fill="url(#paint23_linear_2668_1180)"/>
<path d="M585.383 0H584.985C583.797 83.333 583.462 166.666 583.051 249.999C582.743 333.332 583.14 416.666 583.308 499.999L584.419 1000H584.818L586.495 500.001C586.757 416.668 587.248 333.335 587.035 250.001C586.718 166.668 586.477 83.334 585.383 0Z" fill="url(#paint24_linear_2668_1180)"/>
<path d="M609.672 0H609.274C608.085 83.333 607.751 166.666 607.34 249.999C607.032 333.332 607.429 416.666 607.597 499.999L608.708 1000H609.106L610.783 500.001C611.045 416.668 611.536 333.335 611.322 250.001C611.007 166.668 610.766 83.334 609.672 0Z" fill="url(#paint25_linear_2668_1180)"/>
<path d="M633.961 0H633.562C632.374 83.333 632.039 166.666 631.628 249.999C631.32 333.332 631.717 416.666 631.885 499.999L632.997 1000H633.395L635.072 500.001C635.334 416.668 635.825 333.335 635.612 250.001C635.296 166.668 635.055 83.334 633.961 0Z" fill="url(#paint26_linear_2668_1180)"/>
<path d="M658.25 0H658.051H657.852C656.663 83.333 656.329 166.666 655.918 249.999C655.61 333.332 656.007 416.666 656.175 499.999L657.286 1000H657.684L659.361 500.001C659.623 416.668 660.114 333.335 659.901 250.001C659.585 166.668 659.344 83.334 658.25 0Z" fill="url(#paint27_linear_2668_1180)"/>
<path d="M682.539 0H682.141C680.953 83.333 680.618 166.666 680.207 249.999C679.899 333.332 680.296 416.666 680.464 499.999L681.576 1000H681.974L683.651 500.001C683.913 416.668 684.403 333.335 684.19 250.001C683.874 166.668 683.633 83.334 682.539 0Z" fill="url(#paint28_linear_2668_1180)"/>
<path d="M706.828 0H706.43C705.241 83.333 704.907 166.666 704.496 249.999C704.188 333.332 704.585 416.666 704.753 499.999L705.864 1000H706.262L707.939 500.001C708.201 416.668 708.692 333.335 708.479 250.001C708.163 166.668 707.922 83.334 706.828 0Z" fill="url(#paint29_linear_2668_1180)"/>
<path d="M731.117 0H730.719C729.53 83.333 729.196 166.666 728.785 249.999C728.477 333.332 728.874 416.666 729.042 499.999L730.153 1000H730.551L732.228 500.001C732.49 416.668 732.981 333.335 732.767 250.001C732.452 166.668 732.211 83.334 731.117 0Z" fill="url(#paint30_linear_2668_1180)"/>
<path d="M755.406 0H755.207H755.008C753.82 83.333 753.485 166.666 753.074 249.999C752.766 333.332 753.163 416.666 753.331 499.999L754.442 1000H754.841L756.518 500.001C756.78 416.668 757.271 333.335 757.057 250.001C756.741 166.668 756.5 83.334 755.406 0Z" fill="url(#paint31_linear_2668_1180)"/>
<path d="M779.695 0H779.297C778.108 83.333 777.774 166.666 777.363 249.999C777.055 333.332 777.452 416.666 777.62 499.999L778.732 1000H779.13L780.807 500.001C781.069 416.668 781.56 333.335 781.346 250.001C781.03 166.668 780.789 83.334 779.695 0Z" fill="url(#paint32_linear_2668_1180)"/>
<path d="M803.984 0H803.585C802.397 83.333 802.062 166.666 801.651 249.999C801.343 333.332 801.74 416.666 801.908 499.999L803.02 1000H803.418L805.095 500.001C805.357 416.668 805.848 333.335 805.634 250.001C805.319 166.668 805.078 83.334 803.984 0Z" fill="url(#paint33_linear_2668_1180)"/>
<path d="M828.273 0H827.875C826.686 83.333 826.352 166.666 825.941 249.999C825.633 333.332 826.03 416.666 826.198 499.999L827.31 1000H827.708L829.385 500.001C829.647 416.668 830.138 333.335 829.924 250.001C829.608 166.668 829.367 83.334 828.273 0Z" fill="url(#paint34_linear_2668_1180)"/>
<path d="M852.562 0H852.363H852.164C850.975 83.333 850.641 166.666 850.23 249.999C849.922 333.332 850.319 416.666 850.487 499.999L851.599 1000H851.997L853.674 500.001C853.936 416.668 854.428 333.335 854.214 250.001C853.897 166.668 853.656 83.334 852.562 0Z" fill="url(#paint35_linear_2668_1180)"/>
<path d="M876.851 0H876.453C875.264 83.333 874.93 166.666 874.519 249.999C874.211 333.332 874.608 416.666 874.776 499.999L875.888 1000H876.286L877.963 500.001C878.225 416.668 878.717 333.335 878.503 250.001C878.186 166.668 877.946 83.334 876.851 0Z" fill="url(#paint36_linear_2668_1180)"/>
<path d="M901.14 0H900.742C899.554 83.333 899.219 166.666 898.808 249.999C898.5 333.332 898.897 416.666 899.065 499.999L900.177 1000H900.575L902.252 500.001C902.514 416.668 903.005 333.335 902.792 250.001C902.475 166.668 902.234 83.334 901.14 0Z" fill="url(#paint37_linear_2668_1180)"/>
<path d="M925.429 0H925.031C923.843 83.333 923.508 166.666 923.097 249.999C922.789 333.332 923.186 416.666 923.354 499.999L924.466 1000H924.865L926.542 500.001C926.804 416.668 927.295 333.335 927.081 250.001C926.764 166.668 926.523 83.334 925.429 0Z" fill="url(#paint38_linear_2668_1180)"/>
<path d="M949.718 0H949.519H949.32C948.131 83.333 947.797 166.666 947.386 249.999C947.078 333.332 947.475 416.666 947.643 499.999L948.755 1000H949.153L950.83 500.001C951.092 416.668 951.583 333.335 951.37 250.001C951.053 166.668 950.813 83.334 949.718 0Z" fill="url(#paint39_linear_2668_1180)"/>
<path d="M974.007 0H973.609C972.421 83.333 972.086 166.666 971.675 249.999C971.367 333.332 971.764 416.666 971.932 499.999L973.044 1000H973.442L975.119 500.001C975.381 416.668 975.872 333.335 975.659 250.001C975.342 166.668 975.101 83.334 974.007 0Z" fill="url(#paint40_linear_2668_1180)"/>
<path d="M999.947 250.001C999.631 166.668 999.391 83.334 998.296 0H997.898C996.709 83.333 996.375 166.666 995.964 249.999C995.656 333.332 996.053 416.666 996.221 499.999L997.333 1000H997.731L999.408 500.001C999.67 416.668 1000.16 333.335 999.947 250.001Z" fill="url(#paint41_linear_2668_1180)"/>
</g>
<defs>
<linearGradient id="paint0_linear_2668_1180" x1="2.07445" y1="0" x2="2.07445" y2="1000" gradientUnits="userSpaceOnUse">
<stop stop-color="#3771A1" stop-opacity="0"/>
<stop offset="0.485577" stop-color="#3771A1" stop-opacity="0.76"/>
<stop offset="1" stop-color="#3771A1" stop-opacity="0"/>
</linearGradient>
<linearGradient id="paint1_linear_2668_1180" x1="26.363" y1="0" x2="26.363" y2="1000" gradientUnits="userSpaceOnUse">
<stop stop-color="#3771A1" stop-opacity="0"/>
<stop offset="0.485577" stop-color="#3771A1" stop-opacity="0.76"/>
<stop offset="1" stop-color="#3771A1" stop-opacity="0"/>
</linearGradient>
<linearGradient id="paint2_linear_2668_1180" x1="50.6531" y1="0" x2="50.6531" y2="1000" gradientUnits="userSpaceOnUse">
<stop stop-color="#3771A1" stop-opacity="0"/>
<stop offset="0.485577" stop-color="#3771A1" stop-opacity="0.76"/>
<stop offset="1" stop-color="#3771A1" stop-opacity="0"/>
</linearGradient>
<linearGradient id="paint3_linear_2668_1180" x1="74.9423" y1="0" x2="74.9423" y2="1000" gradientUnits="userSpaceOnUse">
<stop stop-color="#3771A1" stop-opacity="0"/>
<stop offset="0.485577" stop-color="#3771A1" stop-opacity="0.76"/>
<stop offset="1" stop-color="#3771A1" stop-opacity="0"/>
</linearGradient>
<linearGradient id="paint4_linear_2668_1180" x1="99.2309" y1="0" x2="99.2309" y2="1000" gradientUnits="userSpaceOnUse">
<stop stop-color="#3771A1" stop-opacity="0"/>
<stop offset="0.485577" stop-color="#3771A1" stop-opacity="0.76"/>
<stop offset="1" stop-color="#3771A1" stop-opacity="0"/>
</linearGradient>
<linearGradient id="paint5_linear_2668_1180" x1="123.52" y1="0" x2="123.52" y2="1000" gradientUnits="userSpaceOnUse">
<stop stop-color="#3771A1" stop-opacity="0"/>
<stop offset="0.485577" stop-color="#3771A1" stop-opacity="0.76"/>
<stop offset="1" stop-color="#3771A1" stop-opacity="0"/>
</linearGradient>
<linearGradient id="paint6_linear_2668_1180" x1="147.809" y1="0" x2="147.809" y2="1000" gradientUnits="userSpaceOnUse">
<stop stop-color="#3771A1" stop-opacity="0"/>
<stop offset="0.485577" stop-color="#3771A1" stop-opacity="0.76"/>
<stop offset="1" stop-color="#3771A1" stop-opacity="0"/>
</linearGradient>
<linearGradient id="paint7_linear_2668_1180" x1="172.098" y1="0" x2="172.098" y2="1000" gradientUnits="userSpaceOnUse">
<stop stop-color="#3771A1" stop-opacity="0"/>
<stop offset="0.485577" stop-color="#3771A1" stop-opacity="0.76"/>
<stop offset="1" stop-color="#3771A1" stop-opacity="0"/>
</linearGradient>
<linearGradient id="paint8_linear_2668_1180" x1="196.388" y1="0" x2="196.388" y2="1000" gradientUnits="userSpaceOnUse">
<stop stop-color="#3771A1" stop-opacity="0"/>
<stop offset="0.485577" stop-color="#3771A1" stop-opacity="0.76"/>
<stop offset="1" stop-color="#3771A1" stop-opacity="0"/>
</linearGradient>
<linearGradient id="paint9_linear_2668_1180" x1="220.677" y1="0" x2="220.677" y2="1000" gradientUnits="userSpaceOnUse">
<stop stop-color="#3771A1" stop-opacity="0"/>
<stop offset="0.485577" stop-color="#3771A1" stop-opacity="0.76"/>
<stop offset="1" stop-color="#3771A1" stop-opacity="0"/>
</linearGradient>
<linearGradient id="paint10_linear_2668_1180" x1="244.966" y1="0" x2="244.966" y2="1000" gradientUnits="userSpaceOnUse">
<stop stop-color="#3771A1" stop-opacity="0"/>
<stop offset="0.485577" stop-color="#3771A1" stop-opacity="0.76"/>
<stop offset="1" stop-color="#3771A1" stop-opacity="0"/>
</linearGradient>
<linearGradient id="paint11_linear_2668_1180" x1="269.255" y1="0" x2="269.255" y2="1000" gradientUnits="userSpaceOnUse">
<stop stop-color="#3771A1" stop-opacity="0"/>
<stop offset="0.485577" stop-color="#3771A1" stop-opacity="0.76"/>
<stop offset="1" stop-color="#3771A1" stop-opacity="0"/>
</linearGradient>
<linearGradient id="paint12_linear_2668_1180" x1="293.544" y1="0" x2="293.544" y2="1000" gradientUnits="userSpaceOnUse">
<stop stop-color="#3771A1" stop-opacity="0"/>
<stop offset="0.485577" stop-color="#3771A1" stop-opacity="0.76"/>
<stop offset="1" stop-color="#3771A1" stop-opacity="0"/>
</linearGradient>
<linearGradient id="paint13_linear_2668_1180" x1="317.832" y1="0" x2="317.832" y2="1000" gradientUnits="userSpaceOnUse">
<stop stop-color="#3771A1" stop-opacity="0"/>
<stop offset="0.485577" stop-color="#3771A1" stop-opacity="0.76"/>
<stop offset="1" stop-color="#3771A1" stop-opacity="0"/>
</linearGradient>
<linearGradient id="paint14_linear_2668_1180" x1="342.121" y1="0" x2="342.121" y2="1000" gradientUnits="userSpaceOnUse">
<stop stop-color="#3771A1" stop-opacity="0"/>
<stop offset="0.485577" stop-color="#3771A1" stop-opacity="0.76"/>
<stop offset="1" stop-color="#3771A1" stop-opacity="0"/>
</linearGradient>
<linearGradient id="paint15_linear_2668_1180" x1="366.41" y1="0" x2="366.41" y2="1000" gradientUnits="userSpaceOnUse">
<stop stop-color="#3771A1" stop-opacity="0"/>
<stop offset="0.485577" stop-color="#3771A1" stop-opacity="0.76"/>
<stop offset="1" stop-color="#3771A1" stop-opacity="0"/>
</linearGradient>
<linearGradient id="paint16_linear_2668_1180" x1="390.699" y1="0" x2="390.699" y2="1000" gradientUnits="userSpaceOnUse">
<stop stop-color="#3771A1" stop-opacity="0"/>
<stop offset="0.485577" stop-color="#3771A1" stop-opacity="0.76"/>
<stop offset="1" stop-color="#3771A1" stop-opacity="0"/>
</linearGradient>
<linearGradient id="paint17_linear_2668_1180" x1="414.988" y1="0" x2="414.988" y2="1000" gradientUnits="userSpaceOnUse">
<stop stop-color="#3771A1" stop-opacity="0"/>
<stop offset="0.485577" stop-color="#3771A1" stop-opacity="0.76"/>
<stop offset="1" stop-color="#3771A1" stop-opacity="0"/>
</linearGradient>
<linearGradient id="paint18_linear_2668_1180" x1="439.277" y1="0" x2="439.277" y2="1000" gradientUnits="userSpaceOnUse">
<stop stop-color="#3771A1" stop-opacity="0"/>
<stop offset="0.485577" stop-color="#3771A1" stop-opacity="0.76"/>
<stop offset="1" stop-color="#3771A1" stop-opacity="0"/>
</linearGradient>
<linearGradient id="paint19_linear_2668_1180" x1="463.567" y1="0" x2="463.567" y2="1000" gradientUnits="userSpaceOnUse">
<stop stop-color="#3771A1" stop-opacity="0"/>
<stop offset="0.485577" stop-color="#3771A1" stop-opacity="0.76"/>
<stop offset="1" stop-color="#3771A1" stop-opacity="0"/>
</linearGradient>
<linearGradient id="paint20_linear_2668_1180" x1="487.855" y1="0" x2="487.855" y2="1000" gradientUnits="userSpaceOnUse">
<stop stop-color="#3771A1" stop-opacity="0"/>
<stop offset="0.485577" stop-color="#3771A1" stop-opacity="0.76"/>
<stop offset="1" stop-color="#3771A1" stop-opacity="0"/>
</linearGradient>
<linearGradient id="paint21_linear_2668_1180" x1="512.145" y1="0" x2="512.145" y2="1000" gradientUnits="userSpaceOnUse">
<stop stop-color="#3771A1" stop-opacity="0"/>
<stop offset="0.485577" stop-color="#3771A1" stop-opacity="0.76"/>
<stop offset="1" stop-color="#3771A1" stop-opacity="0"/>
</linearGradient>
<linearGradient id="paint22_linear_2668_1180" x1="536.434" y1="0" x2="536.434" y2="1000" gradientUnits="userSpaceOnUse">
<stop stop-color="#3771A1" stop-opacity="0"/>
<stop offset="0.485577" stop-color="#3771A1" stop-opacity="0.76"/>
<stop offset="1" stop-color="#3771A1" stop-opacity="0"/>
</linearGradient>
<linearGradient id="paint23_linear_2668_1180" x1="560.723" y1="0" x2="560.723" y2="1000" gradientUnits="userSpaceOnUse">
<stop stop-color="#3771A1" stop-opacity="0"/>
<stop offset="0.485577" stop-color="#3771A1" stop-opacity="0.76"/>
<stop offset="1" stop-color="#3771A1" stop-opacity="0"/>
</linearGradient>
<linearGradient id="paint24_linear_2668_1180" x1="585.012" y1="0" x2="585.012" y2="1000" gradientUnits="userSpaceOnUse">
<stop stop-color="#3771A1" stop-opacity="0"/>
<stop offset="0.485577" stop-color="#3771A1" stop-opacity="0.76"/>
<stop offset="1" stop-color="#3771A1" stop-opacity="0"/>
</linearGradient>
<linearGradient id="paint25_linear_2668_1180" x1="609.301" y1="0" x2="609.301" y2="1000" gradientUnits="userSpaceOnUse">
<stop stop-color="#3771A1" stop-opacity="0"/>
<stop offset="0.485577" stop-color="#3771A1" stop-opacity="0.76"/>
<stop offset="1" stop-color="#3771A1" stop-opacity="0"/>
</linearGradient>
<linearGradient id="paint26_linear_2668_1180" x1="633.59" y1="0" x2="633.59" y2="1000" gradientUnits="userSpaceOnUse">
<stop stop-color="#3771A1" stop-opacity="0"/>
<stop offset="0.485577" stop-color="#3771A1" stop-opacity="0.76"/>
<stop offset="1" stop-color="#3771A1" stop-opacity="0"/>
</linearGradient>
<linearGradient id="paint27_linear_2668_1180" x1="657.879" y1="0" x2="657.879" y2="1000" gradientUnits="userSpaceOnUse">
<stop stop-color="#3771A1" stop-opacity="0"/>
<stop offset="0.485577" stop-color="#3771A1" stop-opacity="0.76"/>
<stop offset="1" stop-color="#3771A1" stop-opacity="0"/>
</linearGradient>
<linearGradient id="paint28_linear_2668_1180" x1="682.168" y1="0" x2="682.168" y2="1000" gradientUnits="userSpaceOnUse">
<stop stop-color="#3771A1" stop-opacity="0"/>
<stop offset="0.485577" stop-color="#3771A1" stop-opacity="0.76"/>
<stop offset="1" stop-color="#3771A1" stop-opacity="0"/>
</linearGradient>
<linearGradient id="paint29_linear_2668_1180" x1="706.456" y1="0" x2="706.456" y2="1000" gradientUnits="userSpaceOnUse">
<stop stop-color="#3771A1" stop-opacity="0"/>
<stop offset="0.485577" stop-color="#3771A1" stop-opacity="0.76"/>
<stop offset="1" stop-color="#3771A1" stop-opacity="0"/>
</linearGradient>
<linearGradient id="paint30_linear_2668_1180" x1="730.745" y1="0" x2="730.745" y2="1000" gradientUnits="userSpaceOnUse">
<stop stop-color="#3771A1" stop-opacity="0"/>
<stop offset="0.485577" stop-color="#3771A1" stop-opacity="0.76"/>
<stop offset="1" stop-color="#3771A1" stop-opacity="0"/>
</linearGradient>
<linearGradient id="paint31_linear_2668_1180" x1="755.035" y1="0" x2="755.035" y2="1000" gradientUnits="userSpaceOnUse">
<stop stop-color="#3771A1" stop-opacity="0"/>
<stop offset="0.485577" stop-color="#3771A1" stop-opacity="0.76"/>
<stop offset="1" stop-color="#3771A1" stop-opacity="0"/>
</linearGradient>
<linearGradient id="paint32_linear_2668_1180" x1="779.324" y1="0" x2="779.324" y2="1000" gradientUnits="userSpaceOnUse">
<stop stop-color="#3771A1" stop-opacity="0"/>
<stop offset="0.485577" stop-color="#3771A1" stop-opacity="0.76"/>
<stop offset="1" stop-color="#3771A1" stop-opacity="0"/>
</linearGradient>
<linearGradient id="paint33_linear_2668_1180" x1="803.612" y1="0" x2="803.612" y2="1000" gradientUnits="userSpaceOnUse">
<stop stop-color="#3771A1" stop-opacity="0"/>
<stop offset="0.485577" stop-color="#3771A1" stop-opacity="0.76"/>
<stop offset="1" stop-color="#3771A1" stop-opacity="0"/>
</linearGradient>
<linearGradient id="paint34_linear_2668_1180" x1="827.902" y1="0" x2="827.902" y2="1000" gradientUnits="userSpaceOnUse">
<stop stop-color="#3771A1" stop-opacity="0"/>
<stop offset="0.485577" stop-color="#3771A1" stop-opacity="0.76"/>
<stop offset="1" stop-color="#3771A1" stop-opacity="0"/>
</linearGradient>
<linearGradient id="paint35_linear_2668_1180" x1="852.191" y1="0" x2="852.191" y2="1000" gradientUnits="userSpaceOnUse">
<stop stop-color="#3771A1" stop-opacity="0"/>
<stop offset="0.485577" stop-color="#3771A1" stop-opacity="0.76"/>
<stop offset="1" stop-color="#3771A1" stop-opacity="0"/>
</linearGradient>
<linearGradient id="paint36_linear_2668_1180" x1="876.48" y1="0" x2="876.48" y2="1000" gradientUnits="userSpaceOnUse">
<stop stop-color="#3771A1" stop-opacity="0"/>
<stop offset="0.485577" stop-color="#3771A1" stop-opacity="0.76"/>
<stop offset="1" stop-color="#3771A1" stop-opacity="0"/>
</linearGradient>
<linearGradient id="paint37_linear_2668_1180" x1="900.769" y1="0" x2="900.769" y2="1000" gradientUnits="userSpaceOnUse">
<stop stop-color="#3771A1" stop-opacity="0"/>
<stop offset="0.485577" stop-color="#3771A1" stop-opacity="0.76"/>
<stop offset="1" stop-color="#3771A1" stop-opacity="0"/>
</linearGradient>
<linearGradient id="paint38_linear_2668_1180" x1="925.059" y1="0" x2="925.059" y2="1000" gradientUnits="userSpaceOnUse">
<stop stop-color="#3771A1" stop-opacity="0"/>
<stop offset="0.485577" stop-color="#3771A1" stop-opacity="0.76"/>
<stop offset="1" stop-color="#3771A1" stop-opacity="0"/>
</linearGradient>
<linearGradient id="paint39_linear_2668_1180" x1="949.347" y1="0" x2="949.347" y2="1000" gradientUnits="userSpaceOnUse">
<stop stop-color="#3771A1" stop-opacity="0"/>
<stop offset="0.485577" stop-color="#3771A1" stop-opacity="0.76"/>
<stop offset="1" stop-color="#3771A1" stop-opacity="0"/>
</linearGradient>
<linearGradient id="paint40_linear_2668_1180" x1="973.636" y1="0" x2="973.636" y2="1000" gradientUnits="userSpaceOnUse">
<stop stop-color="#3771A1" stop-opacity="0"/>
<stop offset="0.485577" stop-color="#3771A1" stop-opacity="0.76"/>
<stop offset="1" stop-color="#3771A1" stop-opacity="0"/>
</linearGradient>
<linearGradient id="paint41_linear_2668_1180" x1="997.925" y1="0" x2="997.925" y2="1000" gradientUnits="userSpaceOnUse">
<stop stop-color="#3771A1" stop-opacity="0"/>
<stop offset="0.485577" stop-color="#3771A1" stop-opacity="0.76"/>
<stop offset="1" stop-color="#3771A1" stop-opacity="0"/>
</linearGradient>
<clipPath id="clip0_2668_1180">
<rect width="1000" height="1000" fill="white"/>
</clipPath>
</defs>
</svg>
