<svg width="16" height="16" viewBox="0 0 16 16" fill="none" xmlns="http://www.w3.org/2000/svg">
<rect width="16" height="16" rx="4" fill="#635BFF"/>
<path d="M12.1663 10.9167V12.1667H3.83301V10.9167C3.83301 10.6875 4.02051 10.5 4.24967 10.5H11.7497C11.9788 10.5 12.1663 10.6875 12.1663 10.9167Z" fill="#FEFEFE" stroke="#FEFEFE" stroke-width="1.5" stroke-miterlimit="10" stroke-linecap="round" stroke-linejoin="round"/>
<path d="M5.91634 7.58337H5.08301V10.5H5.91634V7.58337Z" fill="#FEFEFE"/>
<path d="M7.58333 7.58337H6.75V10.5H7.58333V7.58337Z" fill="#FEFEFE"/>
<path d="M9.25033 7.58337H8.41699V10.5H9.25033V7.58337Z" fill="#FEFEFE"/>
<path d="M10.9163 7.58337H10.083V10.5H10.9163V7.58337Z" fill="#FEFEFE"/>
<path d="M12.5837 12.4791H3.41699C3.24616 12.4791 3.10449 12.3375 3.10449 12.1666C3.10449 11.9958 3.24616 11.8541 3.41699 11.8541H12.5837C12.7545 11.8541 12.8962 11.9958 12.8962 12.1666C12.8962 12.3375 12.7545 12.4791 12.5837 12.4791Z" fill="#FEFEFE"/>
<path d="M11.9038 5.39585L8.15384 3.89585C8.07051 3.86252 7.92884 3.86252 7.84551 3.89585L4.09551 5.39585C3.94967 5.45418 3.83301 5.62502 3.83301 5.78335V7.16668C3.83301 7.39585 4.02051 7.58335 4.24967 7.58335H11.7497C11.9788 7.58335 12.1663 7.39585 12.1663 7.16668V5.78335C12.1663 5.62502 12.0497 5.45418 11.9038 5.39585ZM7.99967 6.54168C7.65384 6.54168 7.37467 6.26252 7.37467 5.91668C7.37467 5.57085 7.65384 5.29168 7.99967 5.29168C8.34551 5.29168 8.62467 5.57085 8.62467 5.91668C8.62467 6.26252 8.34551 6.54168 7.99967 6.54168Z" fill="#FEFEFE"/>
</svg>
