<svg width="16" height="16" viewBox="0 0 16 16" fill="none" xmlns="http://www.w3.org/2000/svg">
<rect width="16" height="16" rx="4" fill="#635BFF"/>
<path d="M12.1663 11.8541C12.1663 12.025 12.0247 12.1666 11.8538 12.1666H4.14551C3.97467 12.1666 3.83301 12.025 3.83301 11.8541C3.83301 11.6833 3.97467 11.5416 4.14551 11.5416H11.8538C12.0247 11.5416 12.1663 11.6833 12.1663 11.8541Z" fill="#FEFEFE"/>
<path d="M9.41276 4.88336L4.93776 9.35836C4.76693 9.52919 4.49193 9.52919 4.32526 9.35836H4.32109C3.74193 8.77502 3.74193 7.83336 4.32109 7.25419L7.30026 4.27502C7.88359 3.69169 8.82526 3.69169 9.40859 4.27502C9.57943 4.43752 9.57943 4.71669 9.41276 4.88336Z" fill="#FEFEFE"/>
<path d="M11.6749 6.53751L10.4041 5.26667C10.2333 5.09584 9.95827 5.09584 9.7916 5.26667L5.3166 9.74168C5.14577 9.90834 5.14577 10.1833 5.3166 10.3542L6.58743 11.6292C7.17077 12.2083 8.11244 12.2083 8.69577 11.6292L11.6708 8.65001C12.2624 8.06668 12.2624 7.12084 11.6749 6.53751ZM8.3166 10.3L7.81244 10.8083C7.70827 10.9125 7.53744 10.9125 7.4291 10.8083C7.32493 10.7042 7.32493 10.5333 7.4291 10.425L7.93744 9.91668C8.03744 9.81668 8.21244 9.81668 8.3166 9.91668C8.42077 10.0208 8.42077 10.2 8.3166 10.3ZM9.97077 8.64584L8.9541 9.66668C8.84994 9.76667 8.6791 9.76667 8.57077 9.66668C8.4666 9.56251 8.4666 9.39167 8.57077 9.28334L9.5916 8.26251C9.6916 8.16251 9.8666 8.16251 9.97077 8.26251C10.0749 8.37084 10.0749 8.54168 9.97077 8.64584Z" fill="#FEFEFE"/>
</svg>
