<svg width="16" height="16" viewBox="0 0 16 16" fill="none" xmlns="http://www.w3.org/2000/svg">
<rect width="16" height="16" rx="4" fill="#635BFF"/>
<path d="M11.0497 3.83337H4.94967C4.33717 3.83337 3.83301 4.33754 3.83301 4.95004V6.04587C3.83301 6.66254 4.33717 7.16671 4.94967 7.16671H11.0455C11.6622 7.16671 12.1663 6.66254 12.1663 6.05004V4.95004C12.1663 4.33754 11.6622 3.83337 11.0497 3.83337ZM5.81217 5.91671C5.81217 6.08754 5.67051 6.22921 5.49967 6.22921C5.32884 6.22921 5.18717 6.08754 5.18717 5.91671V5.08337C5.18717 4.91254 5.32884 4.77087 5.49967 4.77087C5.67051 4.77087 5.81217 4.91254 5.81217 5.08337V5.91671ZM7.47884 5.91671C7.47884 6.08754 7.33717 6.22921 7.16634 6.22921C6.99551 6.22921 6.85384 6.08754 6.85384 5.91671V5.08337C6.85384 4.91254 6.99551 4.77087 7.16634 4.77087C7.33717 4.77087 7.47884 4.91254 7.47884 5.08337V5.91671ZM10.4997 5.81254H8.83301C8.66217 5.81254 8.52051 5.67087 8.52051 5.50004C8.52051 5.32921 8.66217 5.18754 8.83301 5.18754H10.4997C10.6705 5.18754 10.8122 5.32921 10.8122 5.50004C10.8122 5.67087 10.6705 5.81254 10.4997 5.81254Z" fill="#FEFEFE"/>
<path d="M11.0497 8.83337H4.94967C4.33717 8.83337 3.83301 9.33754 3.83301 9.95004V11.0459C3.83301 11.6625 4.33717 12.1667 4.94967 12.1667H11.0455C11.6622 12.1667 12.1622 11.6625 12.1622 11.05V9.95421C12.1663 9.33754 11.6622 8.83337 11.0497 8.83337ZM5.81217 10.9167C5.81217 11.0875 5.67051 11.2292 5.49967 11.2292C5.32884 11.2292 5.18717 11.0875 5.18717 10.9167V10.0834C5.18717 9.91254 5.32884 9.77087 5.49967 9.77087C5.67051 9.77087 5.81217 9.91254 5.81217 10.0834V10.9167ZM7.47884 10.9167C7.47884 11.0875 7.33717 11.2292 7.16634 11.2292C6.99551 11.2292 6.85384 11.0875 6.85384 10.9167V10.0834C6.85384 9.91254 6.99551 9.77087 7.16634 9.77087C7.33717 9.77087 7.47884 9.91254 7.47884 10.0834V10.9167ZM10.4997 10.8125H8.83301C8.66217 10.8125 8.52051 10.6709 8.52051 10.5C8.52051 10.3292 8.66217 10.1875 8.83301 10.1875H10.4997C10.6705 10.1875 10.8122 10.3292 10.8122 10.5C10.8122 10.6709 10.6705 10.8125 10.4997 10.8125Z" fill="#FEFEFE"/>
</svg>
