<svg width="16" height="16" viewBox="0 0 16 16" fill="none" xmlns="http://www.w3.org/2000/svg">
<rect width="16" height="16" rx="4" fill="#635BFF"/>
<path d="M11.75 12.4791H4.25C4.07917 12.4791 3.9375 12.3375 3.9375 12.1666C3.9375 11.9958 4.07917 11.8541 4.25 11.8541H11.75C11.9208 11.8541 12.0625 11.9958 12.0625 12.1666C12.0625 12.3375 11.9208 12.4791 11.75 12.4791Z" fill="#FEFEFE"/>
<path d="M5.33333 6.4917H4.66667C4.4375 6.4917 4.25 6.6792 4.25 6.90837V10.5C4.25 10.7292 4.4375 10.9167 4.66667 10.9167H5.33333C5.5625 10.9167 5.75 10.7292 5.75 10.5V6.90837C5.75 6.67503 5.5625 6.4917 5.33333 6.4917Z" fill="#FEFEFE"/>
<path d="M8.33333 5.16248H7.66667C7.4375 5.16248 7.25 5.34998 7.25 5.57914V10.5C7.25 10.7291 7.4375 10.9166 7.66667 10.9166H8.33333C8.5625 10.9166 8.75 10.7291 8.75 10.5V5.57914C8.75 5.34998 8.5625 5.16248 8.33333 5.16248Z" fill="#FEFEFE"/>
<path d="M11.3333 3.83337H10.6667C10.4375 3.83337 10.25 4.02087 10.25 4.25004V10.5C10.25 10.7292 10.4375 10.9167 10.6667 10.9167H11.3333C11.5625 10.9167 11.75 10.7292 11.75 10.5V4.25004C11.75 4.02087 11.5625 3.83337 11.3333 3.83337Z" fill="#FEFEFE"/>
</svg>
